<svg xmlns="http://www.w3.org/2000/svg" width="48" height="34" viewBox="0 0 48 34">
    <g fill="#00A3E0" fill-rule="evenodd">
        <path d="M25.003 31.352c-1.677-.068-3.092-.442-4.732-1.25-7.912-3.895-13.447-9.78-16.922-17.988-.446-1.053-.745-2.153-.943-3.462-.158-1.052-.034-1.95.381-2.72a380.604 380.604 0 0 1 3.133 3.3c1.103 1.169 2.235 2.37 3.363 3.535-.427.677-.731 1.623-.23 2.802.182.432.63 1.025.868 1.27 2.016 2.066 4.038 4.126 6.06 6.184l.587.597c1.086 1.106 2.69 1.312 3.972.613 1.12 1.144 2.246 2.297 3.373 3.452 1.063 1.089 2.126 2.179 3.186 3.26-.6.297-1.314.438-2.096.407zm4.708-1.118c-1.373-1.4-2.756-2.817-4.138-4.232-1.369-1.402-2.736-2.803-4.094-4.185l-.787-.783-.824.74c-.032.029-.1.091-.17.16-.44.435-1.047.435-1.474-.001l-.588-.598c-2.02-2.056-4.04-4.113-6.053-6.177a3.491 3.491 0 0 1-.38-.535c-.108-.251-.172-.404.493-1.094l.811-.844-.82-.835C10.333 10.468 8.948 9 7.61 7.58 6.268 6.155 4.88 4.683 3.516 3.291l-.812-.828-.828.813C.366 4.76-.251 6.744.092 9.014c.228 1.516.58 2.8 1.107 4.045 3.707 8.759 9.613 15.036 18.053 19.192 1.922.946 3.667 1.404 5.658 1.485.104.004.207.007.31.006 1.8 0 3.393-.647 4.51-1.84l.79-.844-.809-.824zM5.64 0L3.983 1.687l9.382 9.56 1.656-1.686zM31.501 29.733l-9.382-9.56 1.655-1.687 9.383 9.56zM13.457 4.135h29.43L25.586 16.244l1.704 1.701L45.184 5.421v19.924H34.699l2.39 2.386h10.436V1.749H11.068z"/>
    </g>
</svg>
