<svg xmlns="http://www.w3.org/2000/svg" xmlns:xlink="http://www.w3.org/1999/xlink" width="188" height="250" viewBox="0 0 188 250">
    <defs>
        <path id="a" d="M0 263.544h194.434V0H0z"/>
    </defs>
    <g fill="none" fill-rule="evenodd">
        <path fill="#FFD5AC" d="M78.137 176.54c-1.958-17.222-5.96-52.313-6.178-53.187-.29-1.16-40.455-28.853-40.455-28.853S22.045 78.866 2.357 83.306c0 0-6.91 1.614 2.933 14.737.469.625 1.068 1.313 1.555 1.948 1.22 1.587 2.317 3.278 3.366 4.98 1.64 2.656 3.13 5.417 4.26 8.33 1.41 3.642 2.182 7.474 2.435 11.366.477 7.323-.677 14.704-.652 22.043.009 2.47.104 4.94.364 7.398a47.754 47.754 0 0 0 1.219 6.871 39.554 39.554 0 0 0 2.213 6.359c.928 2.064 2.047 4.046 3.384 5.874a26.551 26.551 0 0 0 5.009 5.216c1.705 1.34 3.576 2.45 5.542 3.361v31.018H104.6v-38.468l-26.463 2.2z"/>
        <path fill="#F1B987" d="M119.152 156.084c-2.636-3.26-21.099 5.6-32.816 11.7l-.868-1.864-55.277-.138 49.006 42.131h25.509l-10.641-23.515c25.32-6.377 25.087-28.314 25.087-28.314"/>
        <path fill="#FFF3D9" d="M7.27 100.553c4.112-7.803-3.165-13.746-5.34-14.304-.348-.09-1.622-.334-1.874-.099-.292 1.96.491 5.224 4.295 10.603l.094.134c.268.376.548.76.845 1.156.47.625 1.068 1.312 1.555 1.948.13.17.254.344.382.516.014.014.027.036.042.046"/>
        <mask id="b" fill="#fff">
            <use xlink:href="#a"/>
        </mask>
        <path fill="#546274" d="M20.775 263.544h103.881v-64.787H20.775z" mask="url(#b)"/>
        <path fill="#354556" d="M73.372 263.544h51.284v-64.787H73.372z" mask="url(#b)"/>
        <path fill="#3A4A5B" d="M122.269 161.69c0 5.97-4.84 10.808-10.81 10.808H35.836c-5.973 0-10.813-4.838-10.813-10.808V10.808C25.022 4.838 29.862 0 35.835 0h75.625c5.969 0 10.809 4.838 10.809 10.808V161.69z" mask="url(#b)"/>
        <path fill="#FFF" d="M31.706 148.668h83.878V12.024H31.706z" mask="url(#b)"/>
        <path fill="#FF544B" d="M75.563 6.332a1.918 1.918 0 1 1-3.836-.001 1.918 1.918 0 0 1 3.836 0" mask="url(#b)"/>
        <path fill="#E9E9E9" d="M80.687 27.664a7.04 7.04 0 0 1-7.042 7.04 7.04 7.04 0 1 1 7.042-7.04M61.643 27.664a7.04 7.04 0 1 1-14.082-.002 7.04 7.04 0 0 1 14.082.002M99.73 27.664a7.04 7.04 0 1 1-14.082-.002 7.04 7.04 0 0 1 14.082.002M80.687 47.34a7.04 7.04 0 0 1-7.042 7.04 7.04 7.04 0 1 1 0-14.08 7.04 7.04 0 0 1 7.042 7.04M61.643 47.34a7.04 7.04 0 0 1-7.041 7.04 7.04 7.04 0 1 1 0-14.08 7.04 7.04 0 0 1 7.04 7.04M99.73 47.34a7.04 7.04 0 0 1-7.041 7.04 7.04 7.04 0 1 1 0-14.08 7.04 7.04 0 0 1 7.04 7.04M80.687 67.016a7.04 7.04 0 0 1-7.042 7.04 7.04 7.04 0 1 1 0-14.08 7.04 7.04 0 0 1 7.042 7.04M80.687 86.692a7.04 7.04 0 0 1-7.042 7.04 7.04 7.04 0 1 1 7.042-7.04M61.643 67.016a7.04 7.04 0 0 1-7.041 7.04 7.04 7.04 0 1 1 0-14.08 7.04 7.04 0 0 1 7.04 7.04M99.73 67.016a7.04 7.04 0 0 1-7.041 7.04 7.04 7.04 0 1 1 0-14.08 7.04 7.04 0 0 1 7.04 7.04M61.643 86.692a7.04 7.04 0 1 1-14.082-.002 7.04 7.04 0 0 1 14.082.002M99.73 86.692a7.04 7.04 0 1 1-14.082-.002 7.04 7.04 0 0 1 14.082.002" mask="url(#b)"/>
        <path fill="#00D493" d="M73.645 100.571c-7.077 0-12.834 5.757-12.834 12.832 0 7.076 5.757 12.833 12.834 12.833s12.834-5.757 12.834-12.833c0-7.075-5.757-12.832-12.834-12.832" mask="url(#b)"/>
        <path fill="#FFF" d="M77.501 116.221c-.262-.089-.545-.142-.798-.02-.178.084-.348.21-.607.378l-.801.52s-.757.701-2.949-2.647c-2.164-3.368-1.215-3.772-1.215-3.772.268-.172.535-.345.802-.519.26-.168.444-.271.593-.4.215-.182.281-.461.306-.736.064-.661-.104-1.371-.348-1.982-.304-.759-.872-1.48-1.59-1.888a2.873 2.873 0 0 0-.429-.206c-2.787.266-3.438 3.492-3.438 3.492.745 3.294 2.65 6.508 3.135 7.296v.005s.019.032.058.089l.057.088.005.003c.519.765 2.68 3.813 5.385 5.836 0 0 3.211.722 4.59-1.715.013-.151 0-.323-.014-.475-.078-.822-.506-1.634-1.075-2.22-.457-.473-1.038-.915-1.667-1.127" mask="url(#b)"/>
        <path fill="#FFD5AC" d="M144.865 76.309c1.632 3.965-.434 8.573-4.612 10.294l-24.876 10.244c-4.181 1.72-8.895-.097-10.527-4.062l-1.797-4.36c-1.632-3.963.434-8.572 4.613-10.295l24.877-10.242c4.182-1.721 8.896.097 10.527 4.062l1.795 4.359z" mask="url(#b)"/>
        <path fill="#F8BB85" d="M103.9 90.478l.937 2.275c1.632 3.964 6.345 5.783 10.528 4.061l24.873-10.242c4.182-1.721 6.247-6.332 4.616-10.297l-.938-2.273-40.015 16.476z" mask="url(#b)"/>
        <path fill="#FFF0CC" d="M122.952 86.83c.448 1.086-.119 2.348-1.263 2.82l-10.184 4.193c-1.144.47-2.435-.025-2.884-1.113l-3.132-7.606c-.448-1.085.119-2.346 1.261-2.818l10.187-4.192c1.143-.473 2.437.024 2.88 1.11l3.135 7.607z" mask="url(#b)"/>
        <path fill="#FFD5AC" d="M141.997 97.453c1.632 3.965-.433 8.574-4.613 10.295l-24.877 10.245c-4.18 1.72-8.892-.099-10.526-4.063l-1.796-4.36c-1.632-3.962.433-8.574 4.616-10.296l24.874-10.24c4.182-1.722 8.895.094 10.526 4.06l1.796 4.36z" mask="url(#b)"/>
        <path fill="#F8BB85" d="M101.032 111.62l.936 2.278c1.632 3.965 6.348 5.783 10.528 4.06l24.875-10.24c4.181-1.724 6.245-6.332 4.614-10.298l-.937-2.273-40.016 16.474z" mask="url(#b)"/>
        <path fill="#FFF0CC" d="M120.085 107.976c.445 1.083-.12 2.348-1.264 2.818l-10.184 4.194c-1.145.47-2.437-.027-2.882-1.113l-3.134-7.605c-.447-1.087.118-2.347 1.263-2.82l10.183-4.193c1.146-.472 2.437.027 2.885 1.11l3.133 7.609z" mask="url(#b)"/>
        <path fill="#FFD5AC" d="M140.57 119.13c1.633 3.966-.433 8.573-4.614 10.295l-24.875 10.243c-4.18 1.72-8.894-.097-10.526-4.062l-1.796-4.358c-1.635-3.965.433-8.574 4.615-10.297l24.874-10.242c4.182-1.721 8.894.097 10.527 4.062l1.794 4.36z" mask="url(#b)"/>
        <path fill="#F8BB85" d="M99.606 133.298l.936 2.278c1.632 3.964 6.346 5.782 10.526 4.06l24.875-10.243c4.182-1.721 6.247-6.332 4.614-10.294l-.937-2.276-40.014 16.475z" mask="url(#b)"/>
        <path fill="#FFF0CC" d="M118.657 129.653c.445 1.083-.12 2.348-1.265 2.818l-10.182 4.195c-1.146.468-2.437-.027-2.882-1.114l-3.134-7.605c-.447-1.086.119-2.348 1.262-2.82l10.185-4.193c1.145-.472 2.436.026 2.884 1.112l3.132 7.607z" mask="url(#b)"/>
        <path fill="#FFD5AC" d="M137.05 140.138c1.376 3.347-.365 7.234-3.895 8.685l-20.98 8.64c-3.528 1.455-7.504-.081-8.88-3.425l-1.515-3.676c-1.376-3.345.364-7.234 3.89-8.685l20.984-8.64c3.526-1.452 7.501.082 8.88 3.425l1.515 3.676z" mask="url(#b)"/>
        <path fill="#F8BB85" d="M102.493 152.09l.79 1.921c1.378 3.343 5.354 4.88 8.881 3.425l20.981-8.639c3.528-1.452 5.271-5.339 3.891-8.684l-.79-1.92-33.753 13.898z" mask="url(#b)"/>
        <path fill="#FFF0CC" d="M118.564 149.016c.379.915-.1 1.98-1.064 2.377l-8.59 3.537c-.968.397-2.056-.02-2.434-.937l-2.643-6.418c-.376-.913.1-1.98 1.067-2.378l8.591-3.536c.964-.398 2.054.023 2.43.937l2.643 6.418z" mask="url(#b)"/>
        <path fill="#FFD5AC" d="M124.103 263.544h57.496l-8.733-23.395s1.438-10.26-3.11-24.995a5.836 5.836 0 0 0-.318-1.36l-15.304-41.799c-1.514-4.082-7.274-6.02-12.865-4.332-.752.227-1.457.513-2.12.839-2.484-1.195-5.428-1.51-8.24-.662a10.608 10.608 0 0 0-3.049 1.489c-2.549-1.328-5.627-1.72-8.562-.832-2.257.682-4.071 2.017-5.316 3.706-2.663-1.615-6.021-2.152-9.207-1.188-2.086.63-3.802 1.814-5.034 3.323l-16.449-44.371c-1.96-5.284-8.085-8.2-13.674-6.506-5.589 1.69-8.531 7.344-6.569 12.627l22.636 61.002c.141.38.309.743.49 1.097l7.943 20.245s-19.036-14.016-36.047-12.01c0 0-19.007 4.959 8.44 19.915 0 0 17.998 8.75 24.59 14.295 0 0 13.245 14.178 27.084 16.497 0 0 3.28.845 5.918 6.415" mask="url(#b)"/>
        <path fill="#000" d="M71.875 172.498h4.685l-8.843-23.83h-4.559z" mask="url(#b)"/>
        <path fill="#FFF3D9" d="M81.059 134.82c.83 2.226-.413 4.608-2.769 5.32l-4.333 1.31c-2.355.713-4.935-.514-5.763-2.74l-1.964-5.289c-.827-2.225.414-4.608 2.768-5.32l4.336-1.312c2.353-.713 4.933.516 5.76 2.742l1.965 5.289zM58.987 210.024c-2.697-.76-5.594.253-7.32 2.537.08 2.638 2.525 6.242 10.132 11.027.615-.209 1.241-.456 1.713-.896 2.17-2.024 4.064-6.832 1.622-9.34-.702-.722-5.31-3.092-6.147-3.328" mask="url(#b)"/>
        <path fill="#546274" d="M194.433 263.544l-10.549-20.135-59.228 20.135z" mask="url(#b)"/>
    </g>
</svg>
