<svg xmlns="http://www.w3.org/2000/svg" width="32" height="32" viewBox="0 0 32 32">
    <g fill="none" fill-rule="evenodd">
        <path fill="#FFF" fill-rule="nonzero" d="M27.349 31.347H3.907A3.914 3.914 0 0 1 0 27.429V3.919A3.914 3.914 0 0 1 3.907 0h23.442a3.914 3.914 0 0 1 3.907 3.918v23.51a3.914 3.914 0 0 1-3.907 3.919zm-15.347-7.711c7.369 0 11.4-6.129 11.4-11.434 0-.173 0-.345-.007-.517a8.176 8.176 0 0 0 2-2.085 8.102 8.102 0 0 1-2.305.635 4.041 4.041 0 0 0 1.766-2.226 7.956 7.956 0 0 1-2.547.972 3.994 3.994 0 0 0-2.923-1.27 4.018 4.018 0 0 0-4.008 4.02c0 .314.039.62.101.917-3.328-.164-6.282-1.77-8.259-4.2a4.028 4.028 0 0 0-.54 2.022c0 1.395.712 2.625 1.783 3.346a4.044 4.044 0 0 1-1.813-.501v.054a4.024 4.024 0 0 0 3.211 3.942 3.896 3.896 0 0 1-1.055.141c-.258 0-.508-.023-.75-.07a4.008 4.008 0 0 0 3.743 2.79 8.022 8.022 0 0 1-4.977 1.724c-.32 0-.641-.016-.954-.055a11.373 11.373 0 0 0 6.134 1.795z"/>
    </g>
</svg>
