<svg xmlns="http://www.w3.org/2000/svg" width="32" height="32" viewBox="0 0 32 32">
    <path fill="#FFF" fill-rule="nonzero" d="M27.349 31.347H3.907A3.914 3.914 0 0 1 0 27.429V3.919A3.914 3.914 0 0 1 3.907 0h23.442a3.914 3.914 0 0 1 3.907 3.918v23.51a3.914 3.914 0 0 1-3.907 3.919zm-1.214-21.058a2.783 2.783 0 0 0-1.942-1.973c-1.724-.48-8.62-.48-8.62-.48s-6.895 0-8.62.462c-.925.258-1.687 1.032-1.941 1.991-.454 1.752-.454 5.384-.454 5.384s0 3.651.454 5.385a2.783 2.783 0 0 0 1.942 1.973c1.742.48 8.62.48 8.62.48s6.895 0 8.62-.462a2.783 2.783 0 0 0 1.941-1.973c.454-1.752.454-5.384.454-5.384s.018-3.651-.454-5.403zm-12.757 8.74v-6.711l5.734 3.355-5.734 3.356z"/>
</svg>
